<svg xmlns="http://www.w3.org/2000/svg" viewBox="0 0 900 300" role="img"
     aria-label="Sixteen photographs arranged in a ring. On the left, exhaustive matching compares every pair, drawing 120 lines into a dense tangle. On the right, sequential matching compares each photograph only with its near neighbours in capture order, drawing a thin band around the ring.">
  <rect width="900" height="300" rx="10" fill="#f7f9fb"/>
  <g font-family="Helvetica, Arial, sans-serif" text-anchor="middle">
    <rect x="24" y="42" width="414" height="222" rx="10" fill="#ffffff" stroke="#c9d5e0" stroke-width="1.5"/>
    <rect x="462" y="42" width="414" height="222" rx="10" fill="#ffffff" stroke="#c9d5e0" stroke-width="1.5"/>
    <text x="231" y="74" font-size="15" font-weight="600" fill="#2f4858">exhaustive_matcher</text>
    <text x="669" y="74" font-size="15" font-weight="600" fill="#2f4858">sequential_matcher</text>
    <g>
      <line x1="231.0" y1="86.0" x2="258.6" y2="91.5" stroke="#6b8fb0" stroke-width="1" stroke-opacity="0.35"/>
      <line x1="231.0" y1="86.0" x2="281.9" y2="107.1" stroke="#6b8fb0" stroke-width="1" stroke-opacity="0.35"/>
      <line x1="231.0" y1="86.0" x2="297.5" y2="130.4" stroke="#6b8fb0" stroke-width="1" stroke-opacity="0.35"/>
      <line x1="231.0" y1="86.0" x2="303.0" y2="158.0" stroke="#6b8fb0" stroke-width="1" stroke-opacity="0.35"/>
      <line x1="231.0" y1="86.0" x2="297.5" y2="185.6" stroke="#6b8fb0" stroke-width="1" stroke-opacity="0.35"/>
      <line x1="231.0" y1="86.0" x2="281.9" y2="208.9" stroke="#6b8fb0" stroke-width="1" stroke-opacity="0.35"/>
      <line x1="231.0" y1="86.0" x2="258.6" y2="224.5" stroke="#6b8fb0" stroke-width="1" stroke-opacity="0.35"/>
      <line x1="231.0" y1="86.0" x2="231.0" y2="230.0" stroke="#6b8fb0" stroke-width="1" stroke-opacity="0.35"/>
      <line x1="231.0" y1="86.0" x2="203.4" y2="224.5" stroke="#6b8fb0" stroke-width="1" stroke-opacity="0.35"/>
      <line x1="231.0" y1="86.0" x2="180.1" y2="208.9" stroke="#6b8fb0" stroke-width="1" stroke-opacity="0.35"/>
      <line x1="231.0" y1="86.0" x2="164.5" y2="185.6" stroke="#6b8fb0" stroke-width="1" stroke-opacity="0.35"/>
      <line x1="231.0" y1="86.0" x2="159.0" y2="158.0" stroke="#6b8fb0" stroke-width="1" stroke-opacity="0.35"/>
      <line x1="231.0" y1="86.0" x2="164.5" y2="130.4" stroke="#6b8fb0" stroke-width="1" stroke-opacity="0.35"/>
      <line x1="231.0" y1="86.0" x2="180.1" y2="107.1" stroke="#6b8fb0" stroke-width="1" stroke-opacity="0.35"/>
      <line x1="231.0" y1="86.0" x2="203.4" y2="91.5" stroke="#6b8fb0" stroke-width="1" stroke-opacity="0.35"/>
      <line x1="258.6" y1="91.5" x2="281.9" y2="107.1" stroke="#6b8fb0" stroke-width="1" stroke-opacity="0.35"/>
      <line x1="258.6" y1="91.5" x2="297.5" y2="130.4" stroke="#6b8fb0" stroke-width="1" stroke-opacity="0.35"/>
      <line x1="258.6" y1="91.5" x2="303.0" y2="158.0" stroke="#6b8fb0" stroke-width="1" stroke-opacity="0.35"/>
      <line x1="258.6" y1="91.5" x2="297.5" y2="185.6" stroke="#6b8fb0" stroke-width="1" stroke-opacity="0.35"/>
      <line x1="258.6" y1="91.5" x2="281.9" y2="208.9" stroke="#6b8fb0" stroke-width="1" stroke-opacity="0.35"/>
      <line x1="258.6" y1="91.5" x2="258.6" y2="224.5" stroke="#6b8fb0" stroke-width="1" stroke-opacity="0.35"/>
      <line x1="258.6" y1="91.5" x2="231.0" y2="230.0" stroke="#6b8fb0" stroke-width="1" stroke-opacity="0.35"/>
      <line x1="258.6" y1="91.5" x2="203.4" y2="224.5" stroke="#6b8fb0" stroke-width="1" stroke-opacity="0.35"/>
      <line x1="258.6" y1="91.5" x2="180.1" y2="208.9" stroke="#6b8fb0" stroke-width="1" stroke-opacity="0.35"/>
      <line x1="258.6" y1="91.5" x2="164.5" y2="185.6" stroke="#6b8fb0" stroke-width="1" stroke-opacity="0.35"/>
      <line x1="258.6" y1="91.5" x2="159.0" y2="158.0" stroke="#6b8fb0" stroke-width="1" stroke-opacity="0.35"/>
      <line x1="258.6" y1="91.5" x2="164.5" y2="130.4" stroke="#6b8fb0" stroke-width="1" stroke-opacity="0.35"/>
      <line x1="258.6" y1="91.5" x2="180.1" y2="107.1" stroke="#6b8fb0" stroke-width="1" stroke-opacity="0.35"/>
      <line x1="258.6" y1="91.5" x2="203.4" y2="91.5" stroke="#6b8fb0" stroke-width="1" stroke-opacity="0.35"/>
      <line x1="281.9" y1="107.1" x2="297.5" y2="130.4" stroke="#6b8fb0" stroke-width="1" stroke-opacity="0.35"/>
      <line x1="281.9" y1="107.1" x2="303.0" y2="158.0" stroke="#6b8fb0" stroke-width="1" stroke-opacity="0.35"/>
      <line x1="281.9" y1="107.1" x2="297.5" y2="185.6" stroke="#6b8fb0" stroke-width="1" stroke-opacity="0.35"/>
      <line x1="281.9" y1="107.1" x2="281.9" y2="208.9" stroke="#6b8fb0" stroke-width="1" stroke-opacity="0.35"/>
      <line x1="281.9" y1="107.1" x2="258.6" y2="224.5" stroke="#6b8fb0" stroke-width="1" stroke-opacity="0.35"/>
      <line x1="281.9" y1="107.1" x2="231.0" y2="230.0" stroke="#6b8fb0" stroke-width="1" stroke-opacity="0.35"/>
      <line x1="281.9" y1="107.1" x2="203.4" y2="224.5" stroke="#6b8fb0" stroke-width="1" stroke-opacity="0.35"/>
      <line x1="281.9" y1="107.1" x2="180.1" y2="208.9" stroke="#6b8fb0" stroke-width="1" stroke-opacity="0.35"/>
      <line x1="281.9" y1="107.1" x2="164.5" y2="185.6" stroke="#6b8fb0" stroke-width="1" stroke-opacity="0.35"/>
      <line x1="281.9" y1="107.1" x2="159.0" y2="158.0" stroke="#6b8fb0" stroke-width="1" stroke-opacity="0.35"/>
      <line x1="281.9" y1="107.1" x2="164.5" y2="130.4" stroke="#6b8fb0" stroke-width="1" stroke-opacity="0.35"/>
      <line x1="281.9" y1="107.1" x2="180.1" y2="107.1" stroke="#6b8fb0" stroke-width="1" stroke-opacity="0.35"/>
      <line x1="281.9" y1="107.1" x2="203.4" y2="91.5" stroke="#6b8fb0" stroke-width="1" stroke-opacity="0.35"/>
      <line x1="297.5" y1="130.4" x2="303.0" y2="158.0" stroke="#6b8fb0" stroke-width="1" stroke-opacity="0.35"/>
      <line x1="297.5" y1="130.4" x2="297.5" y2="185.6" stroke="#6b8fb0" stroke-width="1" stroke-opacity="0.35"/>
      <line x1="297.5" y1="130.4" x2="281.9" y2="208.9" stroke="#6b8fb0" stroke-width="1" stroke-opacity="0.35"/>
      <line x1="297.5" y1="130.4" x2="258.6" y2="224.5" stroke="#6b8fb0" stroke-width="1" stroke-opacity="0.35"/>
      <line x1="297.5" y1="130.4" x2="231.0" y2="230.0" stroke="#6b8fb0" stroke-width="1" stroke-opacity="0.35"/>
      <line x1="297.5" y1="130.4" x2="203.4" y2="224.5" stroke="#6b8fb0" stroke-width="1" stroke-opacity="0.35"/>
      <line x1="297.5" y1="130.4" x2="180.1" y2="208.9" stroke="#6b8fb0" stroke-width="1" stroke-opacity="0.35"/>
      <line x1="297.5" y1="130.4" x2="164.5" y2="185.6" stroke="#6b8fb0" stroke-width="1" stroke-opacity="0.35"/>
      <line x1="297.5" y1="130.4" x2="159.0" y2="158.0" stroke="#6b8fb0" stroke-width="1" stroke-opacity="0.35"/>
      <line x1="297.5" y1="130.4" x2="164.5" y2="130.4" stroke="#6b8fb0" stroke-width="1" stroke-opacity="0.35"/>
      <line x1="297.5" y1="130.4" x2="180.1" y2="107.1" stroke="#6b8fb0" stroke-width="1" stroke-opacity="0.35"/>
      <line x1="297.5" y1="130.4" x2="203.4" y2="91.5" stroke="#6b8fb0" stroke-width="1" stroke-opacity="0.35"/>
      <line x1="303.0" y1="158.0" x2="297.5" y2="185.6" stroke="#6b8fb0" stroke-width="1" stroke-opacity="0.35"/>
      <line x1="303.0" y1="158.0" x2="281.9" y2="208.9" stroke="#6b8fb0" stroke-width="1" stroke-opacity="0.35"/>
      <line x1="303.0" y1="158.0" x2="258.6" y2="224.5" stroke="#6b8fb0" stroke-width="1" stroke-opacity="0.35"/>
      <line x1="303.0" y1="158.0" x2="231.0" y2="230.0" stroke="#6b8fb0" stroke-width="1" stroke-opacity="0.35"/>
      <line x1="303.0" y1="158.0" x2="203.4" y2="224.5" stroke="#6b8fb0" stroke-width="1" stroke-opacity="0.35"/>
      <line x1="303.0" y1="158.0" x2="180.1" y2="208.9" stroke="#6b8fb0" stroke-width="1" stroke-opacity="0.35"/>
      <line x1="303.0" y1="158.0" x2="164.5" y2="185.6" stroke="#6b8fb0" stroke-width="1" stroke-opacity="0.35"/>
      <line x1="303.0" y1="158.0" x2="159.0" y2="158.0" stroke="#6b8fb0" stroke-width="1" stroke-opacity="0.35"/>
      <line x1="303.0" y1="158.0" x2="164.5" y2="130.4" stroke="#6b8fb0" stroke-width="1" stroke-opacity="0.35"/>
      <line x1="303.0" y1="158.0" x2="180.1" y2="107.1" stroke="#6b8fb0" stroke-width="1" stroke-opacity="0.35"/>
      <line x1="303.0" y1="158.0" x2="203.4" y2="91.5" stroke="#6b8fb0" stroke-width="1" stroke-opacity="0.35"/>
      <line x1="297.5" y1="185.6" x2="281.9" y2="208.9" stroke="#6b8fb0" stroke-width="1" stroke-opacity="0.35"/>
      <line x1="297.5" y1="185.6" x2="258.6" y2="224.5" stroke="#6b8fb0" stroke-width="1" stroke-opacity="0.35"/>
      <line x1="297.5" y1="185.6" x2="231.0" y2="230.0" stroke="#6b8fb0" stroke-width="1" stroke-opacity="0.35"/>
      <line x1="297.5" y1="185.6" x2="203.4" y2="224.5" stroke="#6b8fb0" stroke-width="1" stroke-opacity="0.35"/>
      <line x1="297.5" y1="185.6" x2="180.1" y2="208.9" stroke="#6b8fb0" stroke-width="1" stroke-opacity="0.35"/>
      <line x1="297.5" y1="185.6" x2="164.5" y2="185.6" stroke="#6b8fb0" stroke-width="1" stroke-opacity="0.35"/>
      <line x1="297.5" y1="185.6" x2="159.0" y2="158.0" stroke="#6b8fb0" stroke-width="1" stroke-opacity="0.35"/>
      <line x1="297.5" y1="185.6" x2="164.5" y2="130.4" stroke="#6b8fb0" stroke-width="1" stroke-opacity="0.35"/>
      <line x1="297.5" y1="185.6" x2="180.1" y2="107.1" stroke="#6b8fb0" stroke-width="1" stroke-opacity="0.35"/>
      <line x1="297.5" y1="185.6" x2="203.4" y2="91.5" stroke="#6b8fb0" stroke-width="1" stroke-opacity="0.35"/>
      <line x1="281.9" y1="208.9" x2="258.6" y2="224.5" stroke="#6b8fb0" stroke-width="1" stroke-opacity="0.35"/>
      <line x1="281.9" y1="208.9" x2="231.0" y2="230.0" stroke="#6b8fb0" stroke-width="1" stroke-opacity="0.35"/>
      <line x1="281.9" y1="208.9" x2="203.4" y2="224.5" stroke="#6b8fb0" stroke-width="1" stroke-opacity="0.35"/>
      <line x1="281.9" y1="208.9" x2="180.1" y2="208.9" stroke="#6b8fb0" stroke-width="1" stroke-opacity="0.35"/>
      <line x1="281.9" y1="208.9" x2="164.5" y2="185.6" stroke="#6b8fb0" stroke-width="1" stroke-opacity="0.35"/>
      <line x1="281.9" y1="208.9" x2="159.0" y2="158.0" stroke="#6b8fb0" stroke-width="1" stroke-opacity="0.35"/>
      <line x1="281.9" y1="208.9" x2="164.5" y2="130.4" stroke="#6b8fb0" stroke-width="1" stroke-opacity="0.35"/>
      <line x1="281.9" y1="208.9" x2="180.1" y2="107.1" stroke="#6b8fb0" stroke-width="1" stroke-opacity="0.35"/>
      <line x1="281.9" y1="208.9" x2="203.4" y2="91.5" stroke="#6b8fb0" stroke-width="1" stroke-opacity="0.35"/>
      <line x1="258.6" y1="224.5" x2="231.0" y2="230.0" stroke="#6b8fb0" stroke-width="1" stroke-opacity="0.35"/>
      <line x1="258.6" y1="224.5" x2="203.4" y2="224.5" stroke="#6b8fb0" stroke-width="1" stroke-opacity="0.35"/>
      <line x1="258.6" y1="224.5" x2="180.1" y2="208.9" stroke="#6b8fb0" stroke-width="1" stroke-opacity="0.35"/>
      <line x1="258.6" y1="224.5" x2="164.5" y2="185.6" stroke="#6b8fb0" stroke-width="1" stroke-opacity="0.35"/>
      <line x1="258.6" y1="224.5" x2="159.0" y2="158.0" stroke="#6b8fb0" stroke-width="1" stroke-opacity="0.35"/>
      <line x1="258.6" y1="224.5" x2="164.5" y2="130.4" stroke="#6b8fb0" stroke-width="1" stroke-opacity="0.35"/>
      <line x1="258.6" y1="224.5" x2="180.1" y2="107.1" stroke="#6b8fb0" stroke-width="1" stroke-opacity="0.35"/>
      <line x1="258.6" y1="224.5" x2="203.4" y2="91.5" stroke="#6b8fb0" stroke-width="1" stroke-opacity="0.35"/>
      <line x1="231.0" y1="230.0" x2="203.4" y2="224.5" stroke="#6b8fb0" stroke-width="1" stroke-opacity="0.35"/>
      <line x1="231.0" y1="230.0" x2="180.1" y2="208.9" stroke="#6b8fb0" stroke-width="1" stroke-opacity="0.35"/>
      <line x1="231.0" y1="230.0" x2="164.5" y2="185.6" stroke="#6b8fb0" stroke-width="1" stroke-opacity="0.35"/>
      <line x1="231.0" y1="230.0" x2="159.0" y2="158.0" stroke="#6b8fb0" stroke-width="1" stroke-opacity="0.35"/>
      <line x1="231.0" y1="230.0" x2="164.5" y2="130.4" stroke="#6b8fb0" stroke-width="1" stroke-opacity="0.35"/>
      <line x1="231.0" y1="230.0" x2="180.1" y2="107.1" stroke="#6b8fb0" stroke-width="1" stroke-opacity="0.35"/>
      <line x1="231.0" y1="230.0" x2="203.4" y2="91.5" stroke="#6b8fb0" stroke-width="1" stroke-opacity="0.35"/>
      <line x1="203.4" y1="224.5" x2="180.1" y2="208.9" stroke="#6b8fb0" stroke-width="1" stroke-opacity="0.35"/>
      <line x1="203.4" y1="224.5" x2="164.5" y2="185.6" stroke="#6b8fb0" stroke-width="1" stroke-opacity="0.35"/>
      <line x1="203.4" y1="224.5" x2="159.0" y2="158.0" stroke="#6b8fb0" stroke-width="1" stroke-opacity="0.35"/>
      <line x1="203.4" y1="224.5" x2="164.5" y2="130.4" stroke="#6b8fb0" stroke-width="1" stroke-opacity="0.35"/>
      <line x1="203.4" y1="224.5" x2="180.1" y2="107.1" stroke="#6b8fb0" stroke-width="1" stroke-opacity="0.35"/>
      <line x1="203.4" y1="224.5" x2="203.4" y2="91.5" stroke="#6b8fb0" stroke-width="1" stroke-opacity="0.35"/>
      <line x1="180.1" y1="208.9" x2="164.5" y2="185.6" stroke="#6b8fb0" stroke-width="1" stroke-opacity="0.35"/>
      <line x1="180.1" y1="208.9" x2="159.0" y2="158.0" stroke="#6b8fb0" stroke-width="1" stroke-opacity="0.35"/>
      <line x1="180.1" y1="208.9" x2="164.5" y2="130.4" stroke="#6b8fb0" stroke-width="1" stroke-opacity="0.35"/>
      <line x1="180.1" y1="208.9" x2="180.1" y2="107.1" stroke="#6b8fb0" stroke-width="1" stroke-opacity="0.35"/>
      <line x1="180.1" y1="208.9" x2="203.4" y2="91.5" stroke="#6b8fb0" stroke-width="1" stroke-opacity="0.35"/>
      <line x1="164.5" y1="185.6" x2="159.0" y2="158.0" stroke="#6b8fb0" stroke-width="1" stroke-opacity="0.35"/>
      <line x1="164.5" y1="185.6" x2="164.5" y2="130.4" stroke="#6b8fb0" stroke-width="1" stroke-opacity="0.35"/>
      <line x1="164.5" y1="185.6" x2="180.1" y2="107.1" stroke="#6b8fb0" stroke-width="1" stroke-opacity="0.35"/>
      <line x1="164.5" y1="185.6" x2="203.4" y2="91.5" stroke="#6b8fb0" stroke-width="1" stroke-opacity="0.35"/>
      <line x1="159.0" y1="158.0" x2="164.5" y2="130.4" stroke="#6b8fb0" stroke-width="1" stroke-opacity="0.35"/>
      <line x1="159.0" y1="158.0" x2="180.1" y2="107.1" stroke="#6b8fb0" stroke-width="1" stroke-opacity="0.35"/>
      <line x1="159.0" y1="158.0" x2="203.4" y2="91.5" stroke="#6b8fb0" stroke-width="1" stroke-opacity="0.35"/>
      <line x1="164.5" y1="130.4" x2="180.1" y2="107.1" stroke="#6b8fb0" stroke-width="1" stroke-opacity="0.35"/>
      <line x1="164.5" y1="130.4" x2="203.4" y2="91.5" stroke="#6b8fb0" stroke-width="1" stroke-opacity="0.35"/>
      <line x1="180.1" y1="107.1" x2="203.4" y2="91.5" stroke="#6b8fb0" stroke-width="1" stroke-opacity="0.35"/>
      <circle cx="231.0" cy="86.0" r="5" fill="#44506b"/>
      <circle cx="258.6" cy="91.5" r="5" fill="#44506b"/>
      <circle cx="281.9" cy="107.1" r="5" fill="#44506b"/>
      <circle cx="297.5" cy="130.4" r="5" fill="#44506b"/>
      <circle cx="303.0" cy="158.0" r="5" fill="#44506b"/>
      <circle cx="297.5" cy="185.6" r="5" fill="#44506b"/>
      <circle cx="281.9" cy="208.9" r="5" fill="#44506b"/>
      <circle cx="258.6" cy="224.5" r="5" fill="#44506b"/>
      <circle cx="231.0" cy="230.0" r="5" fill="#44506b"/>
      <circle cx="203.4" cy="224.5" r="5" fill="#44506b"/>
      <circle cx="180.1" cy="208.9" r="5" fill="#44506b"/>
      <circle cx="164.5" cy="185.6" r="5" fill="#44506b"/>
      <circle cx="159.0" cy="158.0" r="5" fill="#44506b"/>
      <circle cx="164.5" cy="130.4" r="5" fill="#44506b"/>
      <circle cx="180.1" cy="107.1" r="5" fill="#44506b"/>
      <circle cx="203.4" cy="91.5" r="5" fill="#44506b"/>
    </g>
    <g>
      <line x1="669.0" y1="86.0" x2="696.6" y2="91.5" stroke="#6b8fb0" stroke-width="1.4" stroke-opacity="0.75"/>
      <line x1="669.0" y1="86.0" x2="719.9" y2="107.1" stroke="#6b8fb0" stroke-width="1.4" stroke-opacity="0.75"/>
      <line x1="669.0" y1="86.0" x2="735.5" y2="130.4" stroke="#6b8fb0" stroke-width="1.4" stroke-opacity="0.75"/>
      <line x1="696.6" y1="91.5" x2="719.9" y2="107.1" stroke="#6b8fb0" stroke-width="1.4" stroke-opacity="0.75"/>
      <line x1="696.6" y1="91.5" x2="735.5" y2="130.4" stroke="#6b8fb0" stroke-width="1.4" stroke-opacity="0.75"/>
      <line x1="696.6" y1="91.5" x2="741.0" y2="158.0" stroke="#6b8fb0" stroke-width="1.4" stroke-opacity="0.75"/>
      <line x1="719.9" y1="107.1" x2="735.5" y2="130.4" stroke="#6b8fb0" stroke-width="1.4" stroke-opacity="0.75"/>
      <line x1="719.9" y1="107.1" x2="741.0" y2="158.0" stroke="#6b8fb0" stroke-width="1.4" stroke-opacity="0.75"/>
      <line x1="719.9" y1="107.1" x2="735.5" y2="185.6" stroke="#6b8fb0" stroke-width="1.4" stroke-opacity="0.75"/>
      <line x1="735.5" y1="130.4" x2="741.0" y2="158.0" stroke="#6b8fb0" stroke-width="1.4" stroke-opacity="0.75"/>
      <line x1="735.5" y1="130.4" x2="735.5" y2="185.6" stroke="#6b8fb0" stroke-width="1.4" stroke-opacity="0.75"/>
      <line x1="735.5" y1="130.4" x2="719.9" y2="208.9" stroke="#6b8fb0" stroke-width="1.4" stroke-opacity="0.75"/>
      <line x1="741.0" y1="158.0" x2="735.5" y2="185.6" stroke="#6b8fb0" stroke-width="1.4" stroke-opacity="0.75"/>
      <line x1="741.0" y1="158.0" x2="719.9" y2="208.9" stroke="#6b8fb0" stroke-width="1.4" stroke-opacity="0.75"/>
      <line x1="741.0" y1="158.0" x2="696.6" y2="224.5" stroke="#6b8fb0" stroke-width="1.4" stroke-opacity="0.75"/>
      <line x1="735.5" y1="185.6" x2="719.9" y2="208.9" stroke="#6b8fb0" stroke-width="1.4" stroke-opacity="0.75"/>
      <line x1="735.5" y1="185.6" x2="696.6" y2="224.5" stroke="#6b8fb0" stroke-width="1.4" stroke-opacity="0.75"/>
      <line x1="735.5" y1="185.6" x2="669.0" y2="230.0" stroke="#6b8fb0" stroke-width="1.4" stroke-opacity="0.75"/>
      <line x1="719.9" y1="208.9" x2="696.6" y2="224.5" stroke="#6b8fb0" stroke-width="1.4" stroke-opacity="0.75"/>
      <line x1="719.9" y1="208.9" x2="669.0" y2="230.0" stroke="#6b8fb0" stroke-width="1.4" stroke-opacity="0.75"/>
      <line x1="719.9" y1="208.9" x2="641.4" y2="224.5" stroke="#6b8fb0" stroke-width="1.4" stroke-opacity="0.75"/>
      <line x1="696.6" y1="224.5" x2="669.0" y2="230.0" stroke="#6b8fb0" stroke-width="1.4" stroke-opacity="0.75"/>
      <line x1="696.6" y1="224.5" x2="641.4" y2="224.5" stroke="#6b8fb0" stroke-width="1.4" stroke-opacity="0.75"/>
      <line x1="696.6" y1="224.5" x2="618.1" y2="208.9" stroke="#6b8fb0" stroke-width="1.4" stroke-opacity="0.75"/>
      <line x1="669.0" y1="230.0" x2="641.4" y2="224.5" stroke="#6b8fb0" stroke-width="1.4" stroke-opacity="0.75"/>
      <line x1="669.0" y1="230.0" x2="618.1" y2="208.9" stroke="#6b8fb0" stroke-width="1.4" stroke-opacity="0.75"/>
      <line x1="669.0" y1="230.0" x2="602.5" y2="185.6" stroke="#6b8fb0" stroke-width="1.4" stroke-opacity="0.75"/>
      <line x1="641.4" y1="224.5" x2="618.1" y2="208.9" stroke="#6b8fb0" stroke-width="1.4" stroke-opacity="0.75"/>
      <line x1="641.4" y1="224.5" x2="602.5" y2="185.6" stroke="#6b8fb0" stroke-width="1.4" stroke-opacity="0.75"/>
      <line x1="641.4" y1="224.5" x2="597.0" y2="158.0" stroke="#6b8fb0" stroke-width="1.4" stroke-opacity="0.75"/>
      <line x1="618.1" y1="208.9" x2="602.5" y2="185.6" stroke="#6b8fb0" stroke-width="1.4" stroke-opacity="0.75"/>
      <line x1="618.1" y1="208.9" x2="597.0" y2="158.0" stroke="#6b8fb0" stroke-width="1.4" stroke-opacity="0.75"/>
      <line x1="618.1" y1="208.9" x2="602.5" y2="130.4" stroke="#6b8fb0" stroke-width="1.4" stroke-opacity="0.75"/>
      <line x1="602.5" y1="185.6" x2="597.0" y2="158.0" stroke="#6b8fb0" stroke-width="1.4" stroke-opacity="0.75"/>
      <line x1="602.5" y1="185.6" x2="602.5" y2="130.4" stroke="#6b8fb0" stroke-width="1.4" stroke-opacity="0.75"/>
      <line x1="602.5" y1="185.6" x2="618.1" y2="107.1" stroke="#6b8fb0" stroke-width="1.4" stroke-opacity="0.75"/>
      <line x1="597.0" y1="158.0" x2="602.5" y2="130.4" stroke="#6b8fb0" stroke-width="1.4" stroke-opacity="0.75"/>
      <line x1="597.0" y1="158.0" x2="618.1" y2="107.1" stroke="#6b8fb0" stroke-width="1.4" stroke-opacity="0.75"/>
      <line x1="597.0" y1="158.0" x2="641.4" y2="91.5" stroke="#6b8fb0" stroke-width="1.4" stroke-opacity="0.75"/>
      <line x1="602.5" y1="130.4" x2="618.1" y2="107.1" stroke="#6b8fb0" stroke-width="1.4" stroke-opacity="0.75"/>
      <line x1="602.5" y1="130.4" x2="641.4" y2="91.5" stroke="#6b8fb0" stroke-width="1.4" stroke-opacity="0.75"/>
      <line x1="618.1" y1="107.1" x2="641.4" y2="91.5" stroke="#6b8fb0" stroke-width="1.4" stroke-opacity="0.75"/>
      <circle cx="669.0" cy="86.0" r="5" fill="#44506b"/>
      <circle cx="696.6" cy="91.5" r="5" fill="#44506b"/>
      <circle cx="719.9" cy="107.1" r="5" fill="#44506b"/>
      <circle cx="735.5" cy="130.4" r="5" fill="#44506b"/>
      <circle cx="741.0" cy="158.0" r="5" fill="#44506b"/>
      <circle cx="735.5" cy="185.6" r="5" fill="#44506b"/>
      <circle cx="719.9" cy="208.9" r="5" fill="#44506b"/>
      <circle cx="696.6" cy="224.5" r="5" fill="#44506b"/>
      <circle cx="669.0" cy="230.0" r="5" fill="#44506b"/>
      <circle cx="641.4" cy="224.5" r="5" fill="#44506b"/>
      <circle cx="618.1" cy="208.9" r="5" fill="#44506b"/>
      <circle cx="602.5" cy="185.6" r="5" fill="#44506b"/>
      <circle cx="597.0" cy="158.0" r="5" fill="#44506b"/>
      <circle cx="602.5" cy="130.4" r="5" fill="#44506b"/>
      <circle cx="618.1" cy="107.1" r="5" fill="#44506b"/>
      <circle cx="641.4" cy="91.5" r="5" fill="#44506b"/>
    </g>
    <text x="231" y="252" font-size="13" fill="#6b7a89">every pair — 120 comparisons for 16 photos, 500,000 for 1,000</text>
    <text x="669" y="252" font-size="13" fill="#6b7a89">near neighbours in capture order only — grows linearly</text>
  </g>
</svg>
