<svg xmlns="http://www.w3.org/2000/svg" viewBox="0 0 900 230" role="img"
     aria-label="Four stage pipeline: photograph the plant, rebuild it in three dimensions, measure traits, repeat over time.">
  <rect width="900" height="230" rx="10" fill="#f7f9fb"/>

  <g font-family="Helvetica, Arial, sans-serif" text-anchor="middle">

    <!-- 1 capture -->
    <rect x="24" y="46" width="185" height="118" rx="10" fill="#ffffff" stroke="#c9d5e0" stroke-width="1.5"/>
    <g transform="translate(116,88)">
      <rect x="-26" y="-15" width="52" height="33" rx="5" fill="#44506b"/>
      <rect x="-11" y="-22" width="18" height="8" rx="2" fill="#44506b"/>
      <circle cx="0" cy="2" r="10" fill="#f7f9fb"/>
      <circle cx="0" cy="2" r="5" fill="#44506b"/>
    </g>
    <text x="116" y="132" font-size="15" font-weight="600" fill="#2f4858">Photograph</text>
    <text x="116" y="151" font-size="13" fill="#6b7a89">from many angles</text>

    <line x1="215" y1="105" x2="239" y2="105" stroke="#8a99a8" stroke-width="2"/>
    <polygon points="249,105 237,99 237,111" fill="#8a99a8"/>

    <!-- 2 reconstruct -->
    <rect x="255" y="46" width="185" height="118" rx="10" fill="#ffffff" stroke="#c9d5e0" stroke-width="1.5"/>
    <g transform="translate(347,90)" fill="#4fa06a">
      <circle cx="0" cy="-16" r="5"/><circle cx="-14" cy="-4" r="5"/><circle cx="14" cy="-4" r="5"/>
      <circle cx="-7" cy="9" r="5"/><circle cx="9" cy="10" r="5"/><circle cx="0" cy="-2" r="5"/>
      <circle cx="-20" cy="12" r="4"/><circle cx="21" cy="13" r="4"/>
    </g>
    <text x="347" y="132" font-size="15" font-weight="600" fill="#2f4858">Rebuild in 3D</text>
    <text x="347" y="151" font-size="13" fill="#6b7a89">a digital copy</text>

    <line x1="446" y1="105" x2="470" y2="105" stroke="#8a99a8" stroke-width="2"/>
    <polygon points="480,105 468,99 468,111" fill="#8a99a8"/>

    <!-- 3 measure -->
    <rect x="486" y="46" width="185" height="118" rx="10" fill="#ffffff" stroke="#c9d5e0" stroke-width="1.5"/>
    <g transform="translate(578,90)">
      <line x1="-18" y1="18" x2="-18" y2="-18" stroke="#d99a2b" stroke-width="3"/>
      <line x1="-22" y1="-18" x2="-14" y2="-18" stroke="#d99a2b" stroke-width="3"/>
      <line x1="-22" y1="18" x2="-14" y2="18" stroke="#d99a2b" stroke-width="3"/>
      <ellipse cx="8" cy="-6" rx="18" ry="8" fill="#4fa06a" transform="rotate(-14 8 -6)"/>
      <ellipse cx="6" cy="12" rx="15" ry="7" fill="#5fb079" transform="rotate(12 6 12)"/>
    </g>
    <text x="578" y="132" font-size="15" font-weight="600" fill="#2f4858">Measure traits</text>
    <text x="578" y="151" font-size="13" fill="#6b7a89">height, leaf area</text>

    <line x1="677" y1="105" x2="701" y2="105" stroke="#8a99a8" stroke-width="2"/>
    <polygon points="711,105 699,99 699,111" fill="#8a99a8"/>

    <!-- 4 repeat -->
    <rect x="717" y="46" width="160" height="118" rx="10" fill="#eaf5ee" stroke="#2f8f5b" stroke-width="2"/>
    <polyline points="762,112 780,100 798,92 816,74" fill="none" stroke="#2f8f5b" stroke-width="3"
              stroke-linecap="round" stroke-linejoin="round"/>
    <circle cx="762" cy="112" r="3.5" fill="#2f8f5b"/><circle cx="780" cy="100" r="3.5" fill="#2f8f5b"/>
    <circle cx="798" cy="92" r="3.5" fill="#2f8f5b"/><circle cx="816" cy="74" r="3.5" fill="#2f8f5b"/>
    <text x="797" y="132" font-size="15" font-weight="600" fill="#1f6b42">Repeat daily</text>
    <text x="797" y="151" font-size="13" fill="#3d6b52">a growth curve</text>

    <text x="450" y="200" font-size="14" font-style="italic" fill="#6b7a89">
      Nothing is cut, so the same plant can be measured again tomorrow.
    </text>
  </g>
</svg>
